# xmcd CD database file
#
# Track frame offsets:
#	150
#	37441
#	77311
#	114373
#	157146
#	186252
#
# Disc length: 3075 seconds
#
# Revision: 0
# Processed by: cddbd v1.5PL3 Copyright (c) Steve Scherf et al.
# Submitted via: CDex 1.51
#
DISCID=490c0106
DTITLE=Stephen Rhodes - Venus
DYEAR=1998
DGENRE=New Age
TTITLE0=The Birth of Venus
TTITLE1=The Miracle of Love
TTITLE2=Those Angel Eyes
TTITLE3=Crystal Waters
TTITLE4=The Magic of Romance
TTITLE5=Surrender to the Devine
EXTD=YEAR: 1998
EXTT0=
EXTT1=
EXTT2=
EXTT3=
EXTT4=
EXTT5=
PLAYORDER=
